<?xml version="1.0" standalone="no"?><svg xmlns="http://www.w3.org/2000/svg" viewBox="0 0 1440 320"><path fill="#000b76" fill-opacity="1" d="M0,96L26.7,128C53.3,160,107,224,160,229.3C213.3,235,267,181,320,154.7C373.3,128,427,128,480,138.7C533.3,149,587,171,640,176C693.3,181,747,171,800,160C853.3,149,907,139,960,117.3C1013.3,96,1067,64,1120,85.3C1173.3,107,1227,181,1280,197.3C1333.3,213,1387,171,1413,149.3L1440,128L1440,0L1413.3,0C1386.7,0,1333,0,1280,0C1226.7,0,1173,0,1120,0C1066.7,0,1013,0,960,0C906.7,0,853,0,800,0C746.7,0,693,0,640,0C586.7,0,533,0,480,0C426.7,0,373,0,320,0C266.7,0,213,0,160,0C106.7,0,53,0,27,0L0,0Z"></path></svg>