<?xml version="1.0" standalone="no"?><svg xmlns="http://www.w3.org/2000/svg" viewBox="0 0 1440 320"><path fill="#000b76" fill-opacity="1" d="M0,160L24,170.7C48,181,96,203,144,192C192,181,240,139,288,133.3C336,128,384,160,432,186.7C480,213,528,235,576,245.3C624,256,672,256,720,224C768,192,816,128,864,101.3C912,75,960,85,1008,80C1056,75,1104,53,1152,80C1200,107,1248,181,1296,181.3C1344,181,1392,107,1416,69.3L1440,32L1440,0L1416,0C1392,0,1344,0,1296,0C1248,0,1200,0,1152,0C1104,0,1056,0,1008,0C960,0,912,0,864,0C816,0,768,0,720,0C672,0,624,0,576,0C528,0,480,0,432,0C384,0,336,0,288,0C240,0,192,0,144,0C96,0,48,0,24,0L0,0Z"></path></svg>